<svg height="512pt" viewBox="0 0 512 512" width="512pt" xmlns="http://www.w3.org/2000/svg"><path d="m512 256c0 141.386719-114.613281 256-256 256s-256-114.613281-256-256 114.613281-256 256-256 256 114.613281 256 256zm0 0" fill="#5986b8"/><path d="m410.78125 459.921875c-42.976562 32.675781-96.613281 52.078125-154.78125 52.078125s-111.804688-19.402344-154.78125-52.078125c32.101562-15.683594 89.414062-26.121094 154.78125-26.121094s122.691406 10.4375 154.78125 26.121094zm0 0" fill="#38538a"/><path d="m436.167969 150.222656c-35.816407-200.292968-324.523438-200.292968-360.339844 0-3.1875 17.828125-4.851563 36.183594-4.851563 54.933594 0 126.746094 76.058594 235.714844 185.019532 283.792969 108.960937-48.082031 185.023437-157.046875 185.023437-283.792969 0-18.75-1.664062-37.105469-4.851562-54.933594zm0 0" fill="#5ed1c7"/><path d="m400.859375 183.796875c0 74.394531-56.078125 135.707031-128.277344 143.921875-5.441406.628906-10.964843.953125-16.578125.953125-80.003906 0-144.871094-64.871094-144.871094-144.875 0-80 64.867188-144.855469 144.871094-144.855469 5.613282 0 11.136719.324219 16.578125.953125 72.199219 8.214844 128.277344 69.511719 128.277344 143.902344zm0 0" fill="#fcf8f2"/><path d="m273.785156 29.519531c-5.863281-.679687-11.839844-1.023437-17.785156-1.023437-6.425781 0-12.765625.390625-18.988281 1.152344-16.5 2.019531-21.175781-22.027344-5.136719-26.398438 7.949219-2.167969 16.039062-3.25 24.125-3.25-81.125 0-162.261719 50.082031-180.171875 150.226562-3.1875 17.824219-4.847656 36.183594-4.847656 54.929688 0 126.746094 76.058593 235.707031 185.019531 283.792969-34.179688-22.261719-63.585938-57.5625-85.316406-101.640625-14.457032-29.332032 12.636718-62.390625 44.171875-53.71875 13.109375 3.605468 26.90625 5.53125 41.144531 5.53125 5.945312 0 11.921875-.34375 17.761719-1.023438 78.410156-8.914062 137.542969-75.253906 137.542969-154.300781 0-79.035156-59.132813-145.367187-137.519532-154.277344zm-2.402344 287.816407c-5.070312.585937-10.242187.886718-15.382812.886718-56.164062 0-104.386719-34.625-124.46875-83.652344 0 0 .011719 0 0-.011718-6.40625-15.671875-9.945312-32.808594-9.945312-50.761719 0-24.910156 6.8125-48.253906 18.660156-68.273437 23.425781-39.550782 66.550781-66.132813 115.753906-66.132813 5.140625 0 10.3125.292969 15.402344.890625 67.84375 7.710938 119.003906 65.117188 119.003906 133.515625 0 68.410156-51.160156 125.816406-119.023438 133.539063zm0 0" fill="#2ba494"/><path d="m282.855469 177.886719c-15.886719 12.417969-16.171875 21.085937-16.171875 36.105469 0 5.488281-2.890625 11.84375-17.042969 11.84375-11.84375 0-15.886719-4.335938-15.886719-19.355469 0-24.839844 10.976563-36.679688 19.351563-43.902344 9.53125-8.085937 25.707031-17.042969 25.707031-32.640625 0-13.285156-11.554688-19.640625-25.996094-19.640625-29.460937 0-23.105468 22.238281-38.703125 22.238281-7.800781 0-17.332031-5.199218-17.332031-16.460937 0-15.597657 17.910156-38.707031 56.902344-38.707031 36.972656 0 61.523437 20.507812 61.523437 47.660156s-24.550781 46.792968-32.351562 52.859375zm-10.6875 90.117187c0 11.84375-9.816407 22.242188-22.238281 22.242188-12.421876 0-21.953126-10.402344-21.953126-22.242188 0-12.132812 9.820313-22.242187 21.953126-22.242187 12.128906.003906 22.238281 10.113281 22.238281 22.242187zm0 0" fill="#494966"/></svg>